<svg width="1144" height="618" fill="none" xmlns="http://www.w3.org/2000/svg"><g clip-path="url(#clip0)"><path opacity=".2" d="M270.53 111.02h-25.51v25.51h25.51v-25.51zM305.39 111.02h-25.51v25.51h25.51v-25.51zM340.26 111.02h-25.51v25.51h25.51v-25.51zM375.12 111.02h-25.51v25.51h25.51v-25.51zM409.99 111.02h-25.51v25.51h25.51v-25.51z" fill="#00B0FF"/><path d="M444.86 111.02h-25.51v25.51h25.51v-25.51z" fill="#00B0FF"/><path opacity=".2" d="M479.72 111.02h-25.51v25.51h25.51v-25.51zM514.59 111.02h-25.51v25.51h25.51v-25.51zM549.45 111.02h-25.51v25.51h25.51v-25.51z" fill="#00B0FF"/><path d="M584.32 111.02h-25.51v25.51h25.51v-25.51z" fill="#00B0FF"/><path opacity=".2" d="M619.19 111.02h-25.51v25.51h25.51v-25.51zM654.05 111.02h-25.51v25.51h25.51v-25.51zM688.92 111.02h-25.51v25.51h25.51v-25.51zM723.79 111.02h-25.51v25.51h25.51v-25.51zM758.65 111.02h-25.51v25.51h25.51v-25.51zM793.52 111.02h-25.51v25.51h25.51v-25.51z" fill="#00B0FF"/><path d="M828.38 111.02h-25.51v25.51h25.51v-25.51zM863.25 111.02h-25.51v25.51h25.51v-25.51z" fill="#00B0FF"/><path opacity=".2" d="M898.12 111.02h-25.51v25.51h25.51v-25.51zM932.98 111.02h-25.51v25.51h25.51v-25.51z" fill="#00B0FF"/><path d="M967.85 111.02h-25.51v25.51h25.51v-25.51zM1002.71 111.02H977.2v25.51h25.51v-25.51z" fill="#00B0FF"/><path opacity=".2" d="M235.66 143.33h-25.51v25.51h25.51v-25.51z" fill="#00B0FF"/><path d="M270.53 143.33h-25.51v25.51h25.51v-25.51z" fill="#00B0FF"/><path opacity=".2" d="M305.39 143.33h-25.51v25.51h25.51v-25.51z" fill="#00B0FF"/><path opacity=".7" d="M340.26 143.33h-25.51v25.51h25.51v-25.51z" fill="#00B0FF"/><path opacity=".2" d="M375.12 143.33h-25.51v25.51h25.51v-25.51z" fill="#00B0FF"/><path opacity=".4" d="M409.99 143.33h-25.51v25.51h25.51v-25.51z" fill="#00B0FF"/><path d="M444.86 143.33h-25.51v25.51h25.51v-25.51z" fill="#00B0FF"/><path opacity=".4" d="M479.72 143.33h-25.51v25.51h25.51v-25.51z" fill="#00B0FF"/><path opacity=".2" d="M514.59 143.33h-25.51v25.51h25.51v-25.51z" fill="#00B0FF"/><path opacity=".4" d="M549.45 143.33h-25.51v25.51h25.51v-25.51z" fill="#00B0FF"/><path d="M584.32 143.33h-25.51v25.51h25.51v-25.51z" fill="#00B0FF"/><path opacity=".4" d="M619.19 143.33h-25.51v25.51h25.51v-25.51zM654.05 143.33h-25.51v25.51h25.51v-25.51z" fill="#00B0FF"/><path opacity=".2" d="M688.92 143.33h-25.51v25.51h25.51v-25.51z" fill="#00B0FF"/><path opacity=".4" d="M723.79 143.33h-25.51v25.51h25.51v-25.51zM758.65 143.33h-25.51v25.51h25.51v-25.51z" fill="#00B0FF"/><path opacity=".2" d="M793.52 143.33h-25.51v25.51h25.51v-25.51zM828.38 143.33h-25.51v25.51h25.51v-25.51z" fill="#00B0FF"/><path opacity=".4" d="M863.25 143.33h-25.51v25.51h25.51v-25.51z" fill="#00B0FF"/><path opacity=".2" d="M898.12 143.33h-25.51v25.51h25.51v-25.51z" fill="#00B0FF"/><path d="M932.98 143.33h-25.51v25.51h25.51v-25.51zM967.85 143.33h-25.51v25.51h25.51v-25.51zM1002.71 143.33H977.2v25.51h25.51v-25.51zM200.79 175.65h-25.51v25.51h25.51v-25.51z" fill="#00B0FF"/><path opacity=".7" d="M235.66 175.65h-25.51v25.51h25.51v-25.51z" fill="#00B0FF"/><path d="M270.53 175.65h-25.51v25.51h25.51v-25.51z" fill="#00B0FF"/><path opacity=".7" d="M305.39 175.65h-25.51v25.51h25.51v-25.51zM340.26 175.65h-25.51v25.51h25.51v-25.51z" fill="#00B0FF"/><path opacity=".2" d="M375.12 175.65h-25.51v25.51h25.51v-25.51z" fill="#00B0FF"/><path opacity=".4" d="M409.99 175.65h-25.51v25.51h25.51v-25.51zM444.86 175.65h-25.51v25.51h25.51v-25.51z" fill="#00B0FF"/><path d="M479.72 175.65h-25.51v25.51h25.51v-25.51z" fill="#00B0FF"/><path opacity=".2" d="M514.59 175.65h-25.51v25.51h25.51v-25.51z" fill="#00B0FF"/><path opacity=".4" d="M549.45 175.65h-25.51v25.51h25.51v-25.51z" fill="#00B0FF"/><path d="M584.32 175.65h-25.51v25.51h25.51v-25.51z" fill="#00B0FF"/><path opacity=".2" d="M619.19 175.65h-25.51v25.51h25.51v-25.51z" fill="#00B0FF"/><path opacity=".4" d="M654.05 175.65h-25.51v25.51h25.51v-25.51z" fill="#00B0FF"/><path opacity=".2" d="M688.92 175.65h-25.51v25.51h25.51v-25.51z" fill="#00B0FF"/><path d="M723.79 175.65h-25.51v25.51h25.51v-25.51z" fill="#00B0FF"/><path opacity=".2" d="M758.65 175.65h-25.51v25.51h25.51v-25.51z" fill="#00B0FF"/><path opacity=".7" d="M793.52 175.65h-25.51v25.51h25.51v-25.51zM828.38 175.65h-25.51v25.51h25.51v-25.51z" fill="#00B0FF"/><path opacity=".4" d="M863.25 175.65h-25.51v25.51h25.51v-25.51z" fill="#00B0FF"/><path opacity=".2" d="M898.12 175.65h-25.51v25.51h25.51v-25.51z" fill="#00B0FF"/><path d="M932.98 175.65h-25.51v25.51h25.51v-25.51zM967.85 175.65h-25.51v25.51h25.51v-25.51zM1002.71 175.65H977.2v25.51h25.51v-25.51z" fill="#00B0FF"/><path opacity=".5" d="M131.06 207.96h-25.51v25.51h25.51v-25.51z" fill="#00B0FF"/><path opacity=".2" d="M165.93 207.96h-25.51v25.51h25.51v-25.51zM200.79 207.96h-25.51v25.51h25.51v-25.51zM235.66 207.96h-25.51v25.51h25.51v-25.51z" fill="#00B0FF"/><path d="M270.53 207.96h-25.51v25.51h25.51v-25.51z" fill="#00B0FF"/><path opacity=".7" d="M305.39 207.96h-25.51v25.51h25.51v-25.51zM340.26 207.96h-25.51v25.51h25.51v-25.51z" fill="#00B0FF"/><path opacity=".2" d="M375.12 207.96h-25.51v25.51h25.51v-25.51zM409.99 207.96h-25.51v25.51h25.51v-25.51z" fill="#00B0FF"/><path opacity=".4" d="M444.86 207.96h-25.51v25.51h25.51v-25.51zM479.72 207.96h-25.51v25.51h25.51v-25.51z" fill="#00B0FF"/><path d="M514.59 207.96h-25.51v25.51h25.51v-25.51z" fill="#00B0FF"/><path opacity=".2" d="M549.45 207.96h-25.51v25.51h25.51v-25.51z" fill="#00B0FF"/><path opacity=".4" d="M584.32 207.96h-25.51v25.51h25.51v-25.51zM619.19 207.96h-25.51v25.51h25.51v-25.51zM654.05 207.96h-25.51v25.51h25.51v-25.51zM688.92 207.96h-25.51v25.51h25.51v-25.51z" fill="#00B0FF"/><path opacity=".2" d="M723.79 207.96h-25.51v25.51h25.51v-25.51zM758.65 207.96h-25.51v25.51h25.51v-25.51zM793.52 207.96h-25.51v25.51h25.51v-25.51zM828.38 207.96h-25.51v25.51h25.51v-25.51z" fill="#00B0FF"/><path opacity=".7" d="M863.25 207.96h-25.51v25.51h25.51v-25.51zM898.12 207.96h-25.51v25.51h25.51v-25.51z" fill="#00B0FF"/><path opacity=".4" d="M932.98 207.96h-25.51v25.51h25.51v-25.51z" fill="#00B0FF"/><path opacity=".2" d="M967.85 207.96h-25.51v25.51h25.51v-25.51z" fill="#00B0FF"/><path d="M1002.71 207.96H977.2v25.51h25.51v-25.51z" fill="#00B0FF"/><path opacity=".2" d="M131.06 240.28h-25.51v25.51h25.51v-25.51zM165.93 240.28h-25.51v25.51h25.51v-25.51z" fill="#00B0FF"/><path opacity=".2" d="M165.93 240.28h-25.51v25.51h25.51v-25.51z" fill="#00B0FF"/><path opacity=".2" d="M165.93 240.28h-25.51v25.51h25.51v-25.51z" fill="#00B0FF"/><path opacity=".2" d="M165.93 240.28h-25.51v25.51h25.51v-25.51zM131.51 111H106v25.51h25.51V111z" fill="#00B0FF"/><path d="M199.51 111H174v25.51h25.51V111z" fill="#00B0FF"/><path opacity=".2" d="M165.51 111H140v25.51h25.51V111zM235.51 111H210v25.51h25.51V111zM200.51 143H175v25.51h25.51V143zM165.51 143H140v25.51h25.51V143zM165.51 175H140v25.51h25.51V175z" fill="#00B0FF"/><path opacity=".8" d="M131.51 143H106v25.51h25.51V143z" fill="#00B0FF"/><path opacity=".4" d="M200.79 240.28h-25.51v25.51h25.51v-25.51z" fill="#00B0FF"/><path opacity=".2" d="M235.66 240.28h-25.51v25.51h25.51v-25.51zM270.53 240.28h-25.51v25.51h25.51v-25.51z" fill="#00B0FF"/><path opacity=".7" d="M305.39 240.28h-25.51v25.51h25.51v-25.51zM340.26 240.28h-25.51v25.51h25.51v-25.51z" fill="#00B0FF"/><path opacity=".2" d="M375.12 240.28h-25.51v25.51h25.51v-25.51zM409.99 240.28h-25.51v25.51h25.51v-25.51z" fill="#00B0FF"/><path opacity=".4" d="M444.86 240.28h-25.51v25.51h25.51v-25.51z" fill="#00B0FF"/><path d="M479.72 240.28h-25.51v25.51h25.51v-25.51z" fill="#00B0FF"/><path opacity=".2" d="M514.59 240.28h-25.51v25.51h25.51v-25.51z" fill="#00B0FF"/><path d="M549.45 240.28h-25.51v25.51h25.51v-25.51zM584.32 240.28h-25.51v25.51h25.51v-25.51zM619.19 240.28h-25.51v25.51h25.51v-25.51z" fill="#00B0FF"/><path opacity=".2" d="M654.05 240.28h-25.51v25.51h25.51v-25.51z" fill="#00B0FF"/><path d="M688.92 240.28h-25.51v25.51h25.51v-25.51z" fill="#00B0FF"/><path opacity=".2" d="M723.79 240.28h-25.51v25.51h25.51v-25.51zM758.65 240.28h-25.51v25.51h25.51v-25.51zM793.52 240.28h-25.51v25.51h25.51v-25.51zM828.38 240.28h-25.51v25.51h25.51v-25.51zM863.25 240.28h-25.51v25.51h25.51v-25.51z" fill="#00B0FF"/><path opacity=".7" d="M898.12 240.28h-25.51v25.51h25.51v-25.51z" fill="#00B0FF"/><path opacity=".2" d="M932.98 240.28h-25.51v25.51h25.51v-25.51zM967.85 240.28h-25.51v25.51h25.51v-25.51z" fill="#00B0FF"/><path d="M1002.71 240.28H977.2v25.51h25.51v-25.51z" fill="#00B0FF"/><path opacity=".2" d="M131.06 272.59h-25.51v25.51h25.51v-25.51zM130.51 175H105v25.51h25.51V175zM165.93 272.59h-25.51v25.51h25.51v-25.51zM200.79 272.59h-25.51v25.51h25.51v-25.51z" fill="#00B0FF"/><path opacity=".4" d="M235.66 272.59h-25.51v25.51h25.51v-25.51z" fill="#00B0FF"/><path opacity=".2" d="M270.53 272.59h-25.51v25.51h25.51v-25.51zM305.39 272.59h-25.51v25.51h25.51v-25.51z" fill="#00B0FF"/><path opacity=".7" d="M340.26 272.59h-25.51v25.51h25.51v-25.51z" fill="#00B0FF"/><path opacity=".2" d="M375.12 272.59h-25.51v25.51h25.51v-25.51zM409.99 272.59h-25.51v25.51h25.51v-25.51zM444.86 272.59h-25.51v25.51h25.51v-25.51z" fill="#00B0FF"/><path d="M479.72 272.59h-25.51v25.51h25.51v-25.51z" fill="#00B0FF"/><path opacity=".2" d="M514.59 272.59h-25.51v25.51h25.51v-25.51z" fill="#00B0FF"/><path d="M549.45 272.59h-25.51v25.51h25.51v-25.51zM584.32 272.59h-25.51v25.51h25.51v-25.51z" fill="#00B0FF"/><path opacity=".2" d="M619.19 272.59h-25.51v25.51h25.51v-25.51zM654.05 272.59h-25.51v25.51h25.51v-25.51zM688.92 272.59h-25.51v25.51h25.51v-25.51zM723.79 272.59h-25.51v25.51h25.51v-25.51zM758.65 272.59h-25.51v25.51h25.51v-25.51zM793.52 272.59h-25.51v25.51h25.51v-25.51zM828.38 272.59h-25.51v25.51h25.51v-25.51zM863.25 272.59h-25.51v25.51h25.51v-25.51zM898.12 272.59h-25.51v25.51h25.51v-25.51zM932.98 272.59h-25.51v25.51h25.51v-25.51z" fill="#00B0FF"/><path opacity=".4" d="M967.85 272.59h-25.51v25.51h25.51v-25.51z" fill="#00B0FF"/><path d="M1002.71 272.59H977.2v25.51h25.51v-25.51z" fill="#00B0FF"/><path opacity=".7" d="M131.06 304.91h-25.51v25.51h25.51v-25.51zM165.93 304.91h-25.51v25.51h25.51v-25.51zM200.79 304.91h-25.51v25.51h25.51v-25.51zM235.66 304.91h-25.51v25.51h25.51v-25.51zM270.53 304.91h-25.51v25.51h25.51v-25.51z" fill="#00B0FF"/><path opacity=".2" d="M305.39 304.91h-25.51v25.51h25.51v-25.51zM340.26 304.91h-25.51v25.51h25.51v-25.51zM375.12 304.91h-25.51v25.51h25.51v-25.51zM409.99 304.91h-25.51v25.51h25.51v-25.51zM444.86 304.91h-25.51v25.51h25.51v-25.51zM479.72 304.91h-25.51v25.51h25.51v-25.51z" fill="#00B0FF"/><path d="M514.59 304.91h-25.51v25.51h25.51v-25.51z" fill="#00B0FF"/><path opacity=".2" d="M549.45 304.91h-25.51v25.51h25.51v-25.51zM584.32 304.91h-25.51v25.51h25.51v-25.51zM619.19 304.91h-25.51v25.51h25.51v-25.51z" fill="#00B0FF"/><path d="M654.05 304.91h-25.51v25.51h25.51v-25.51z" fill="#00B0FF"/><path opacity=".2" d="M688.92 304.91h-25.51v25.51h25.51v-25.51zM723.79 304.91h-25.51v25.51h25.51v-25.51zM758.65 304.91h-25.51v25.51h25.51v-25.51zM793.52 304.91h-25.51v25.51h25.51v-25.51zM828.38 304.91h-25.51v25.51h25.51v-25.51zM863.25 304.91h-25.51v25.51h25.51v-25.51zM898.12 304.91h-25.51v25.51h25.51v-25.51zM932.98 304.91h-25.51v25.51h25.51v-25.51zM967.85 304.91h-25.51v25.51h25.51v-25.51z" fill="#00B0FF"/><path d="M1002.71 304.91H977.2v25.51h25.51v-25.51z" fill="#00B0FF"/><path d="M734.52 398.76c19.258 0 34.87-15.612 34.87-34.87 0-19.258-15.612-34.87-34.87-34.87-19.258 0-34.87 15.612-34.87 34.87 0 19.258 15.612 34.87 34.87 34.87z" fill="#767D9F"/><path d="M732.71 319.53a676.717 676.717 0 018.86 45.9c.73 4.58 1.38 9.41-.28 13.74-1.39 3.61-4.22 6.43-6.44 9.59-2.22 3.16-3.9 7.21-2.55 10.83s5.29 5.6 9.05 6.62c10.76 2.9 22.23.79 32.94-2.35a53.284 53.284 0 0013.81-5.72c4.54-2.88 8.26-6.88 11.68-11 15.61-18.93 25.83-41.65 35.45-64.23a39.121 39.121 0 01-33.11-13.34c-3.94-4.63-6.83-11.08-4.61-16.74-6.51 3.57-14.24 3.81-21.25 6.25a75.46 75.46 0 00-12.5 6.15 773.516 773.516 0 00-14.28 8.46c-5.41 3.26-10.48 6.16-16.77 5.84z" fill="#C58C85"/><path d="M805.64 345.71c-6.11 11.89-14.06 23.32-25.41 30.4-11.35 7.08-26.63 9-38 2-5.6-3.42-9.84-8.62-14.73-13-4.89-4.38-11-8.13-17.57-7.56-7.24.63-12.91 6.28-17.76 11.69-7.36 8.22-14.47 16.79-19.68 26.52-10 18.7-12.37 40.56-11.93 61.76.44 21.2 3.51 42.29 3.58 63.49.1 26.08-4.32 51.95-8.79 77.64 41.1-5.06 82.25 6 123.44 10.19 26.36 2.71 52.92 2.65 79.42 2.58 4.66 0 9.62-.12 13.5-2.7a18.197 18.197 0 005.59-6.64c3.66-6.75 5.13-14.45 6.15-22.06 2.59-19.22 2.67-38.68 2.74-58.08.18-47 .35-94.17-5.62-140.8-1.47-11.47-3.35-23-7.75-33.73-4.4-10.73-11.58-20.6-21.62-26.35-6.45-3.7-21.4-10.14-29-6.41-8.53 4.16-12.47 23.1-16.56 31.06z" fill="#767D9F"/><path d="M808.68 478.43c-1.55-29-7.86-59.95 5.57-85.69 3.3-6.32-8.54-14.21-4.88-20.33a92.116 92.116 0 0010.06-23.93c.76-2.89 1.37-5.95.65-8.85-1.33-5.29-6.56-8.44-11-11.66-4.9-3.56-7.42-14.41-9-20.28-1.58-5.87 12.57 1.2 18.26-.89 7.9-2.89 17.94-1.07 25.82 1.86 4.4 1.62 9.18 1.76 13.87 1.88 9.11.24 18.25.47 27.29-.65 4.06-.51 8.13-1.28 12.21-1.05 10.41.59 19.46 7.71 25.62 16.13 6.16 8.42 10.08 18.23 15.13 27.35 4.21 7.6 9.23 14.78 12.82 22.69 3.18 7 5.19 14.52 7.18 22l5.13 19.19a25.602 25.602 0 011.26 8.51c-.26 3.07-1.62 5.93-3 8.66A164.048 164.048 0 01943 461.86c-10.79 13.23-23.89 25.16-30.3 41-2.5 6.17-3.89 12.73-5.16 19.27a707.942 707.942 0 00-10.9 79.15 174.22 174.22 0 00-36.52-12.21 177.729 177.729 0 00-19-3c-5.59-.58-12.8.52-18.12-1-8.9-2.53-9.88-17.58-11.23-25.46-2.16-12.55-2.59-25.32-2.67-38-.1-14.42.35-28.81-.42-43.18zM613.23 424.2c4.21 24 8.85 48.07 18 70.62-.23.22-.46.42-.69.62-.81.69-1.65 1.34-2.53 2-2.05 1.44-4.3 2.66-6 4.54a7.994 7.994 0 00-1.5 2.45 5.482 5.482 0 000 4.47c-4.77 2.11-10.31 1.46-15.66 1.26-4.61-.17-9.08 0-12.78 2.53-5.14 3.54-6.69 10.34-7.52 16.52-.307 2.253-.57 4.51-.79 6.77-.213 2.1-.387 4.207-.52 6.32a188.616 188.616 0 00-.19 21c.053 1.28.123 2.56.21 3.84-16.34-.39-31.23-8.91-45.32-17.19-3.22-1.89-6.54-3.88-8.63-7a15.8 15.8 0 01-2.31-10.29c0-.51.09-1 .16-1.52a41.599 41.599 0 012.29-8.68 107.184 107.184 0 0119.19-32.65c3.58-4.18 7.61-8.27 9.28-13.52.73-2.29 1-4.72 1.74-7 3.32-9.88 15.3-14.55 19.4-24.14 1-2.29 1.46-4.8 2.7-7a17.623 17.623 0 014.25-4.75c.73-.61 1.49-1.2 2.24-1.79a296.96 296.96 0 0020.31-17.45 221.72 221.72 0 003.6-3.46 59.533 59.533 0 001.07 13.5z" fill="#4C4981"/><path d="M714 353.22c-1.44 1.52-3 2.95-4.53 4.37l-.41.37-1.62 1.5a39.008 39.008 0 00-7.55 8.79l-.17.28c-5.1 9.13-3.21 20.37-1.79 30.74a261.65 261.65 0 012.37 39c-.26 18-2.38 35.88-2.42 53.86 0 4.08.09 8.15.27 12.23.29 6.63.79 13.25 1.39 19.87.65 7.26 1.43 14.51 2.16 21.76.58 5.61 1.13 11.21 1.59 16.81.23 2.9.45 5.79.63 8.69.21 3.4.38 6.81.48 10.21.07 2.16.11 4.31.11 6.47v3.67c0 2.34-.063 4.673-.19 7a195.538 195.538 0 01-.61 9c-.31 3.27-.86 6.84-3.16 9.14-.14.14-.29.27-.44.4l-3.24-.4a332.722 332.722 0 00-67.3-1.2c.49-3.38.94-6.75 1.38-10.14.2-1.6.4-3.21.59-4.82.22-1.84.43-3.68.63-5.52.23-2 .44-4 .64-6 .52-5.153.977-10.31 1.37-15.47.58-7.527 1.02-15.067 1.32-22.62.147-3.607.26-7.217.34-10.83.113-4.48.167-8.963.16-13.45 0-4.36-.037-8.727-.11-13.1 0-1.44-.06-2.88-.18-4.31a27.307 27.307 0 00-.53-3.83 49.97 49.97 0 00-3-8.48c-.22-.52-.43-1-.64-1.55-.12-.27-.23-.55-.34-.82 5.76-5.13 9.86-12 13.8-18.76 6.39-10.89 12.93-22.26 14-34.84 1.07-12.58-5.18-26.71-17.2-30.55-3.27-1-6.73-1.28-10.1-1.87-3.18-.56-9.81-1.83-13.49-4.11-2 2.053-4 4.07-6 6.05a22.15 22.15 0 012.17-8.71l1.42.07c-.116-.32-.17-.66-.16-1 0-1.07.74-2.28 2.32-3.62 4.71-4 12.12-4.89 15.09-10.3 1.24-2.25 1.45-4.93 2.45-7.29 2.87-6.73 11.11-9.21 16.07-14.59 4.96-5.38 6.2-13 10.21-19a28.612 28.612 0 0112-10c.4-.19.81-.38 1.22-.55 8.3-3.55 18.16-4.36 26.76-4.34 3.34 0 12 .1 16.24 1.79a5.32 5.32 0 011.85 1.13c4.52 4.92-2.51 15.31-5.85 18.87z" fill="#4C4981"/><path d="M614.72 401.35a60.873 60.873 0 0146.74 4.87c7.2 4 13.66 9.58 17.62 16.78 5.95 10.8 5.69 23.82 5.27 36.15-.21 6.17-.48 12.56-3.2 18.1-3.15 6.41-9.09 10.81-15.15 14.41a42.242 42.242 0 01-12.32 5.33c-6.72 1.46-13.7.22-20.47-1-7.36-1.36-15.26-3-20.37-8.48-3-3.18-4.64-7.31-6.26-11.35-2.327-5.833-4.66-11.66-7-17.48-4.05-10.11-5.42-18.52-.07-28.37 2.43-4.49 5.4-8.69 7.8-13.21 1.2-2.3 5.5-15.16 7.41-15.75z" fill="#4C4981"/><path d="M1035 574.22v29.9a167.296 167.296 0 01-64.73 12.8H700.58c-.14.14-.29.27-.44.4l-3.24-.4H217.17c-40.25 0-77.55-10.86-108.14-29.36v-45.65l230.72-26.63h.18l134.36 11.38 34.77 3 18.06 1.53 37.38 3.17 19.23 1.63 28 2.38 3.94.33 20.18 1.71 27.38 2.25 38.5 3.26 64.18 5.45 45.15 3.83 74.14 6.29 14.1 1.19 1.52.13 1.32.11 18.62 1.58 20.44 1.74 2.37.2 91.43 7.78z" fill="#504F60"/><path d="M764 573.12l-289.14-49.35-11.21 56.69 132.54 15.87 40.81 5.11 112.26-22.11 14.74-6.21z" fill="#9C9CA1"/><path d="M614.33 598.6l144.86-27.23a5.01 5.01 0 012.186.068 5.01 5.01 0 013.284 2.726c.312.669.473 1.398.47 2.136a4.997 4.997 0 01-4.09 4.93l-141.47 26.49-5.24-9.12z" fill="#9C9CA1"/><path d="M677.17 512.97c4.51-.42 9.08-1.13 13.14-3.13 5-2.49 8.89-6.78 13.52-9.94 10.18-7 23.8-7.94 35.47-3.92 11.67 4.02 21.41 12.63 28.23 22.91 4.53 6.85 7.93 15.59 4.73 23.15a30.498 30.498 0 01-4.12 6.44l-8.34 10.9a29.017 29.017 0 01-5.66 6.09c-3.12 2.27-7 3.2-10.82 3.76-10.15 1.48-20.48.64-30.71 1.32-17.57 1.17-34.73 6.83-52.34 6.64-10.12-.11-20.11-2.15-30-4.19l-43.77-9c-7.62-1.56-16.23-3.84-19.82-10.75-1.61-3.11-1.91-6.71-2.1-10.21-.52-9.64 0-20.36 6.68-27.31 6.28-6.52 16.21-8.58 23.71-13.4 9.18-5.91 12.21-4 21.89.44a120.001 120.001 0 0060.31 10.2z" fill="#C58C85"/><path opacity=".05" d="M677.17 512.97c4.51-.42 9.08-1.13 13.14-3.13 5-2.49 8.89-6.78 13.52-9.94 10.18-7 23.8-7.94 35.47-3.92 11.67 4.02 21.41 12.63 28.23 22.91 4.53 6.85 7.93 15.59 4.73 23.15a30.498 30.498 0 01-4.12 6.44l-8.34 10.9a29.017 29.017 0 01-5.66 6.09c-3.12 2.27-7 3.2-10.82 3.76-10.15 1.48-20.48.64-30.71 1.32-17.57 1.17-34.73 6.83-52.34 6.64-10.12-.11-20.11-2.15-30-4.19l-43.77-9c-7.62-1.56-16.23-3.84-19.82-10.75-1.61-3.11-1.91-6.71-2.1-10.21-.52-9.64 0-20.36 6.68-27.31 6.28-6.52 16.21-8.58 23.71-13.4 9.18-5.91 12.21-4 21.89.44a120.001 120.001 0 0060.31 10.2z" fill="#000"/><path d="M852.94 499.26c-12.28 4.75-24.63 9.52-37.49 12.35-21.56 4.75-44.12 4-65.51 9.43-11.3 2.88-22.53 7.52-34.14 6.58-5.19-.42-10.2-2-15.25-3.2-28.37-7-60.62-4.73-83.66 13.27-7.88 6.15-14.33 13.82-20.18 22a14.7 14.7 0 005.91 21.88 86.6 86.6 0 0028.38 7.57c13.13 1.16 26.32-.7 39.38-2.56 19.38-2.75 38.77-5.51 58.1-8.6 6.94-1.11 13.88-2.26 20.86-3.14 50.23-6.35 101.37 1.37 151.73-3.93 5.09-.54 10.27-1.24 14.9-3.41 11.72-5.5 17.52-20 15.1-32.74-2.42-12.74-11.76-23.33-23-29.83-9.42-5.47-19.58-7.68-30.07-10-9.74-2.27-15.68.73-25.06 4.33z" fill="#C58C85"/><path opacity=".1" d="M960.67 423.1c5.54 7.26 6.72 17 6.12 26.09-.6 9.09-2.76 18.08-3.08 27.21-.44 12.52 2.58 25 2.07 37.48-.36 8.73-2.43 17.29-4.88 25.67-2.89 9.89-7.07 20.52-16.2 25.27-12.12 6.31-37.54 2.76-50.29 7.7 1.16-7.23 12.28-17.7 13.44-24.93.8-5 1.61-10.14.75-15.15-1.1-6.39-4.85-12.06-9.3-16.78-7.08-7.51-16.32-13.16-26.47-15-10.15-1.84-35-.33-43.12 6.08-1-6.62 17.6-13 24.14-14.43 3.26-.73 7-.32 9.61-2.39 5-3.92 1.37-11.73 1.61-18 .19-5 3.11-9.58 3.7-14.58 1-8-4.22-16.15-2.17-24 .76-2.9 2.45-5.45 3.62-8.21 3.56-8.45 2-18.09.1-27.07-1.18-5.64-2.33-12 .81-16.81 2.91-4.49 11.17 11.5 16.46 10.76 17.47-2.45 33.28-15.4 47.39-4.8 7.19 5.4 8.13 11 11 18.71 2.79 7.34 10.02 11.1 14.69 17.18z" fill="#000"/><path d="M963.67 423.1c5.54 7.26 6.72 17 6.12 26.09-.6 9.09-2.76 18.08-3.08 27.21-.44 12.52 2.58 25 2.07 37.48-.36 8.73-2.43 17.29-4.88 25.67-2.89 9.89-7.07 20.52-16.2 25.27-12.12 6.31-37.54 2.76-50.29 7.7 1.16-7.23 12.28-17.7 13.44-24.93.8-5 1.61-10.14.75-15.15-1.1-6.39-4.85-12.06-9.3-16.78-7.08-7.51-16.32-13.16-26.47-15-10.15-1.84-35-.33-43.12 6.08-1-6.62 17.6-13 24.14-14.43 3.26-.73 7-.32 9.61-2.39 5-3.92 1.37-11.73 1.61-18 .19-5 3.11-9.58 3.7-14.58 1-8-4.22-16.15-2.17-24 .76-2.9 2.45-5.45 3.62-8.21 3.56-8.45 2-18.09.1-27.07-1.18-5.64-2.33-12 .81-16.81 2.91-4.49 8.6-6.19 13.89-6.94a68.417 68.417 0 0150 12.9c7.19 5.4 8.13 11 11 18.71 2.75 7.34 9.98 11.1 14.65 17.18z" fill="#4C4981"/><path d="M302 375.72l54.37 200.94a12.554 12.554 0 0010.91 9.21L612 609.38a12.544 12.544 0 0010.691-4.282 12.546 12.546 0 002.689-11.198l-59.54-242.38a12.54 12.54 0 00-13.12-9.51l-239.59 17.92a12.545 12.545 0 00-9.278 5.278A12.538 12.538 0 00302 375.72z" fill="#9C9CA1"/><path d="M787.11 414.93c14.856 0 26.9-12.2 26.9-27.25s-12.044-27.25-26.9-27.25c-14.856 0-26.9 12.2-26.9 27.25s12.044 27.25 26.9 27.25z" fill="#fff"/><path d="M809.2 337.97s5.67 16.86-11.06 23.95l-2.14 3.74L806.48 376s12.92-23.57 11.52-31.94c0 0-2-8.5-8.8-6.09z" fill="#fff"/><path d="M790.2 414.93c14.326 0 25.94-11.614 25.94-25.94s-11.614-25.94-25.94-25.94-25.94 11.614-25.94 25.94 11.614 25.94 25.94 25.94zM818.13 347.89l-4.12-6.8-6-.85c1.28-22.39-4.53-29.06-4.53-29.06l-1.35-.13-5.88-.57L785.19 299v-3.26c15.54 1.85 24.13 9.23 28.77 17.88 8.2 15.18 4.17 34.27 4.17 34.27z" fill="#00B0FF"/><path opacity=".1" d="M802.18 306.93v4.12l-5.88-.57L785.24 299s17.11 3.83 16.94 7.93zM818.13 347.89l-4.12-6.8v-27.43c8.15 15.14 4.12 34.23 4.12 34.23z" fill="#000" stroke="#4C4981" stroke-miterlimit="10"/><path d="M742.267 399.653c6.901-3.985 6.604-17.42-.664-30.009-7.268-12.588-18.755-19.563-25.656-15.578-6.902 3.984-6.605 17.42.663 30.008 7.268 12.589 18.755 19.564 25.657 15.579z" fill="#fff"/><path d="M733 374.66c7.27 12.59 16.19 21 9.29 25-6.9 4-27 2-34.27-10.6-7.27-12.6-.67-30 6.23-34s11.47 6.98 18.75 19.6z" fill="#00B0FF"/><path opacity=".1" d="M797.73 283.96c0 40.23-27.53 79-67.76 79a72.85 72.85 0 110-145.7c40.23.04 67.76 26.46 67.76 66.7z" fill="#000"/><path d="M729.97 361c40.234 0 72.85-32.616 72.85-72.85 0-40.234-32.616-72.85-72.85-72.85-40.234 0-72.85 32.616-72.85 72.85 0 40.234 32.616 72.85 72.85 72.85z" fill="#C58C85"/><path d="M713.673 264.639c9.635 3.483 15.335 13.267 23.98 18.716 12.224 7.644 28.137 5.667 42.094 1.889 7.778-2.086 15.912-4.63 23.568-2.315a6.773 6.773 0 003.59.502c1.666-.469 2.489-2.282 3.033-3.898 9.468-27.736 5.212-59.152-9.078-84.814-3.69-6.617-8.112-13.016-14.202-17.613-4.8-3.615-10.445-5.984-16.135-8.005a163.473 163.473 0 00-32.092-7.785 20.276 20.276 0 00-5.856-.186c-2.678.426-5.078 1.845-7.467 3.112a77.475 77.475 0 01-33.181 8.856c-15.557.579-33.337-3.025-45.327 6.781-14.446 11.761-10.845 34.703-20.213 50.668-6.201 10.559-18.157 18.225-20.124 30.248a27.46 27.46 0 00.7 10.996c4.578 18.498 22.802 32.825 42.226 33.163 2.983.224 5.97-.377 8.623-1.736a19.351 19.351 0 004.545-4.248c12.724-14.807 27.281-43.024 51.316-34.331z" fill="#444053"/><path opacity=".1" d="M810.2 262.14c-.49 1.48-1.23 3.14-2.73 3.57a5.996 5.996 0 01-3.23-.46c-6.89-2.12-14.25.21-21.2 2.12-12.57 3.46-26.92 5.31-37.88-1.73-7.79-5-12.91-14-21.59-17.14-21.63-8-34.73 17.88-46.21 31.44a17.552 17.552 0 01-4.09 3.89 14.42 14.42 0 01-7.76 1.59c-17.42-.31-33.83-13.43-38-30.37-.23-1-.43-2-.58-3 0 .09 0 .17-.05.26a25.564 25.564 0 00.63 10.07c4.12 16.94 20.53 30.06 38 30.37a14.42 14.42 0 007.76-1.59 17.552 17.552 0 004.09-3.89c11.48-13.56 24.58-39.4 46.21-31.44 8.68 3.19 13.8 12.15 21.59 17.14 11 7 25.31 5.19 37.88 1.73 7-1.91 14.31-4.24 21.2-2.12a5.996 5.996 0 003.23.46c1.5-.43 2.24-2.09 2.73-3.57a90.269 90.269 0 004.48-32.26 88.784 88.784 0 01-4.48 24.93z" fill="#000"/></g><defs><clipPath id="clip0"><path fill="#fff" d="M0 0h1144v617.32H0z"/></clipPath></defs></svg>